<svg xmlns="http://www.w3.org/2000/svg" viewBox="0 0 360 96" role="img" aria-label="Mako IQ">
  <defs>
    <linearGradient id="makoHeaderFill" x1="18" y1="12" x2="78" y2="84" gradientUnits="userSpaceOnUse">
      <stop stop-color="#67E8F9"/>
      <stop offset="0.5" stop-color="#22D3EE"/>
      <stop offset="1" stop-color="#06B6D4"/>
    </linearGradient>
  </defs>
  <rect width="360" height="96" rx="24" fill="#05070A"/>
  <rect x="12" y="12" width="72" height="72" rx="18" fill="#081018" stroke="#67E8F9" stroke-opacity="0.28" stroke-width="2"/>
  <path d="M24 68.6 35.2 36.8c.5-1.4 2.4-1.6 3.2-.3L48 50.8l9.6-14.3c.8-1.3 2.7-1.1 3.2.3L72 68.6c.5 1.4-1 2.6-2.3 1.8L58.2 63.8a3.4 3.4 0 0 0-3.8.2L48 69l-6.4-5a3.4 3.4 0 0 0-3.8-.2l-11.5 6.6c-1.3.8-2.8-.4-2.3-1.8Z" fill="url(#makoHeaderFill)"/>
  <path d="M37 57.4 48 41.8l11 15.6" fill="none" stroke="#05070A" stroke-width="4.8" stroke-linecap="round" stroke-linejoin="round"/>
  <path d="M39.6 57.6h16.8" fill="none" stroke="#CFFAFE" stroke-width="3.8" stroke-linecap="round"/>
  <text x="108" y="51" fill="#F4FBFF" font-family="Inter, Segoe UI, Arial, sans-serif" font-size="34" font-weight="750" letter-spacing="0">Mako IQ</text>
  <text x="110" y="72" fill="#67E8F9" fill-opacity="0.76" font-family="Inter, Segoe UI, Arial, sans-serif" font-size="13" font-weight="700" letter-spacing="3">SCREEN ASSISTANT</text>
</svg>
